<svg width="17" height="20" viewBox="0 0 17 20" fill="none" xmlns="http://www.w3.org/2000/svg">
<mask id="path-1-inside-1" fill="white">
<path d="M15.5377 1.08627H10.3641C9.96125 1.08627 9.59507 1.259 9.33109 1.53809C9.06594 1.81702 8.90083 2.20139 8.90083 2.62543V11.8802C8.90083 12.3032 9.06594 12.6884 9.33006 12.9675C9.59506 13.2466 9.96125 13.4193 10.3641 13.4193H10.5976V14.469C10.5976 14.7934 10.7239 15.088 10.9258 15.3006C11.1289 15.5132 11.4077 15.6461 11.7159 15.6461H12.5774V16.4987C12.5774 17.245 12.287 17.9237 11.819 18.4164C11.3509 18.9093 10.7061 19.2149 9.9969 19.2149C9.28788 19.2149 8.64308 18.9093 8.17499 18.4164C7.70791 17.9237 7.41756 17.245 7.41756 16.4987V2.62878C7.41756 1.90567 7.13661 1.24802 6.6833 0.77179C6.23087 0.295563 5.60708 0 4.91908 0C4.2321 0 3.6073 0.295563 3.15486 0.77179C2.70257 1.24802 2.42163 1.90567 2.42163 2.62878V8.66012C2.42163 8.87726 2.58893 9.05212 2.79521 9.05212C3.00135 9.05212 3.16864 8.87726 3.16864 8.66012V2.62878C3.16864 2.12265 3.36535 1.66199 3.68297 1.32767C4.00073 0.993195 4.43838 0.786133 4.91908 0.786133C5.40095 0.786133 5.83846 0.993195 6.15622 1.32767C6.47282 1.66199 6.67055 2.12265 6.67055 2.62878V16.4987C6.67055 17.462 7.04514 18.3379 7.6479 18.9725C8.25067 19.6069 9.08174 20 9.9969 20C10.9122 20 11.7443 19.6069 12.3471 18.9725C12.9498 18.3379 13.3234 17.462 13.3234 16.4987V15.6461H14.1849C14.4931 15.6461 14.7729 15.5132 14.975 15.3006C15.1779 15.088 15.3032 14.7935 15.3032 14.469V13.4193H15.5377C15.9396 13.4193 16.3056 13.2466 16.5708 12.9675C16.8359 12.6886 17 12.3032 17 11.8802V2.62543C17 2.20139 16.8359 1.81702 16.5708 1.53809C16.3056 1.259 15.9396 1.08627 15.5377 1.08627ZM14.4395 3.49014C14.2332 3.49014 14.0671 3.66623 14.0671 3.88336C14.0671 4.10034 14.2332 4.27643 14.4395 4.27643H16.253V11.8802C16.253 12.0862 16.1731 12.2743 16.0426 12.4117C15.9132 12.5479 15.7334 12.6331 15.5377 12.6331H10.3641C10.1674 12.6331 9.98865 12.5479 9.85803 12.4117C9.72872 12.2743 9.64769 12.0862 9.64769 11.8802V4.27643C10.2505 4.27643 10.8638 4.27643 11.4613 4.27643C11.6675 4.27643 11.8338 4.10034 11.8338 3.88336C11.8338 3.66623 11.6675 3.4903 11.4613 3.4903H9.64769V2.62543C9.64769 2.41837 9.72872 2.23007 9.85803 2.09396C9.98865 1.95663 10.1674 1.87256 10.3641 1.87256H15.5377C15.7334 1.87256 15.9132 1.95663 16.0426 2.09396C16.1731 2.23007 16.253 2.41837 16.253 2.62543V3.49014H14.4395ZM12.951 3.49014C12.7447 3.49014 12.5786 3.66623 12.5786 3.88336C12.5786 4.10034 12.7447 4.27643 12.951 4.27643C13.156 4.27643 13.3223 4.10034 13.3223 3.88336C13.3223 3.66623 13.156 3.49014 12.951 3.49014ZM2.79521 9.83612C2.58893 9.83612 2.42163 10.0111 2.42163 10.2281C2.42163 10.444 2.58893 10.619 2.79521 10.619C3.00135 10.619 3.16864 10.444 3.16864 10.2281C3.16864 10.011 3.00135 9.83612 2.79521 9.83612ZM13.4989 5.49881H12.4029C12.1924 5.49881 12.001 5.5896 11.8632 5.73471C11.7253 5.87982 11.6391 6.08124 11.6391 6.3028V6.97266H11.0027C10.7923 6.97266 10.6018 7.06345 10.463 7.20856C10.3253 7.35367 10.239 7.55508 10.239 7.77542V8.93036C10.239 9.1507 10.3253 9.35226 10.463 9.49738C10.6018 9.64233 10.7923 9.73312 11.0027 9.73312H11.6391V10.4031C11.6391 10.6245 11.7253 10.8261 11.8632 10.9712C12.001 11.1162 12.1924 11.207 12.4029 11.207H13.4989C13.7093 11.207 13.8998 11.1163 14.0376 10.9712C14.1765 10.8261 14.2616 10.6245 14.2616 10.4031V9.73312H14.8981C15.1085 9.73312 15.3 9.64233 15.4377 9.49738C15.5756 9.35226 15.6618 9.1507 15.6618 8.93036V7.77542C15.6618 7.55508 15.5756 7.35367 15.4377 7.20856C15.3 7.06345 15.1085 6.97266 14.8981 6.97266H14.2616V6.3028C14.2616 6.08124 14.1765 5.87982 14.0376 5.73471C13.8998 5.5896 13.7093 5.49881 13.4989 5.49881ZM12.4029 6.2851H13.4989C13.5074 6.2851 13.5148 6.29395 13.5148 6.3028V7.36572C13.5148 7.58286 13.682 7.75894 13.8882 7.75894H14.8981C14.9066 7.75894 14.915 7.76779 14.915 7.77542V8.93036C14.915 8.93814 14.9066 8.94699 14.8981 8.94699H13.8882C13.682 8.94699 13.5148 9.12308 13.5148 9.34006V10.4031C13.5148 10.412 13.5074 10.4208 13.4989 10.4208H12.4029C12.3945 10.4208 12.3861 10.412 12.3861 10.4031V9.34006C12.3861 9.12308 12.2188 8.94699 12.0125 8.94699H11.0027C10.9943 8.94699 10.9859 8.93814 10.9859 8.93036V7.77542C10.9859 7.76779 10.9943 7.75894 11.0027 7.75894H12.0125C12.2188 7.75894 12.3861 7.58286 12.3861 7.36572V6.3028C12.3861 6.29395 12.3945 6.2851 12.4029 6.2851ZM2.51208 11.4195C1.83148 12.2379 1.2151 13.0206 0.765854 13.7825C0.2924 14.5842 0 15.3693 0 16.1543C0 16.9661 0.312395 17.7013 0.818466 18.2338C1.32439 18.7665 2.02299 19.0953 2.79521 19.0953C3.56613 19.0953 4.26471 18.7665 4.77078 18.2338C5.27671 17.7013 5.58911 16.9659 5.58911 16.1543C5.58911 15.3693 5.29672 14.5842 4.82341 13.7825C4.37315 13.0196 3.75662 12.2368 3.075 11.4162C2.92554 11.2369 2.65835 11.239 2.51208 11.4195ZM1.3992 14.1966C1.76422 13.5788 2.2513 12.9376 2.79521 12.2722C3.33897 12.9376 3.82605 13.5788 4.19107 14.1966C4.59393 14.8799 4.84326 15.531 4.84326 16.1543C4.84326 16.749 4.61393 17.2882 4.24268 17.6779C3.87229 18.0688 3.35999 18.3102 2.79506 18.3102C2.22912 18.3102 1.71681 18.0688 1.34657 17.6779C0.976188 17.2882 0.746857 16.749 0.746857 16.1543C0.747002 15.531 0.996344 14.8799 1.3992 14.1966ZM11.3445 13.4193H14.5562V14.469C14.5562 14.5764 14.5152 14.6739 14.4469 14.7447C14.3795 14.8157 14.2868 14.8599 14.1848 14.8599H11.7159C11.6138 14.8599 11.5213 14.8157 11.4539 14.7447C11.3865 14.6739 11.3445 14.5764 11.3445 14.469V13.4193Z"/>
</mask>
<path d="M15.5377 1.08627H10.3641C9.96125 1.08627 9.59507 1.259 9.33109 1.53809C9.06594 1.81702 8.90083 2.20139 8.90083 2.62543V11.8802C8.90083 12.3032 9.06594 12.6884 9.33006 12.9675C9.59506 13.2466 9.96125 13.4193 10.3641 13.4193H10.5976V14.469C10.5976 14.7934 10.7239 15.088 10.9258 15.3006C11.1289 15.5132 11.4077 15.6461 11.7159 15.6461H12.5774V16.4987C12.5774 17.245 12.287 17.9237 11.819 18.4164C11.3509 18.9093 10.7061 19.2149 9.9969 19.2149C9.28788 19.2149 8.64308 18.9093 8.17499 18.4164C7.70791 17.9237 7.41756 17.245 7.41756 16.4987V2.62878C7.41756 1.90567 7.13661 1.24802 6.6833 0.77179C6.23087 0.295563 5.60708 0 4.91908 0C4.2321 0 3.6073 0.295563 3.15486 0.77179C2.70257 1.24802 2.42163 1.90567 2.42163 2.62878V8.66012C2.42163 8.87726 2.58893 9.05212 2.79521 9.05212C3.00135 9.05212 3.16864 8.87726 3.16864 8.66012V2.62878C3.16864 2.12265 3.36535 1.66199 3.68297 1.32767C4.00073 0.993195 4.43838 0.786133 4.91908 0.786133C5.40095 0.786133 5.83846 0.993195 6.15622 1.32767C6.47282 1.66199 6.67055 2.12265 6.67055 2.62878V16.4987C6.67055 17.462 7.04514 18.3379 7.6479 18.9725C8.25067 19.6069 9.08174 20 9.9969 20C10.9122 20 11.7443 19.6069 12.3471 18.9725C12.9498 18.3379 13.3234 17.462 13.3234 16.4987V15.6461H14.1849C14.4931 15.6461 14.7729 15.5132 14.975 15.3006C15.1779 15.088 15.3032 14.7935 15.3032 14.469V13.4193H15.5377C15.9396 13.4193 16.3056 13.2466 16.5708 12.9675C16.8359 12.6886 17 12.3032 17 11.8802V2.62543C17 2.20139 16.8359 1.81702 16.5708 1.53809C16.3056 1.259 15.9396 1.08627 15.5377 1.08627ZM14.4395 3.49014C14.2332 3.49014 14.0671 3.66623 14.0671 3.88336C14.0671 4.10034 14.2332 4.27643 14.4395 4.27643H16.253V11.8802C16.253 12.0862 16.1731 12.2743 16.0426 12.4117C15.9132 12.5479 15.7334 12.6331 15.5377 12.6331H10.3641C10.1674 12.6331 9.98865 12.5479 9.85803 12.4117C9.72872 12.2743 9.64769 12.0862 9.64769 11.8802V4.27643C10.2505 4.27643 10.8638 4.27643 11.4613 4.27643C11.6675 4.27643 11.8338 4.10034 11.8338 3.88336C11.8338 3.66623 11.6675 3.4903 11.4613 3.4903H9.64769V2.62543C9.64769 2.41837 9.72872 2.23007 9.85803 2.09396C9.98865 1.95663 10.1674 1.87256 10.3641 1.87256H15.5377C15.7334 1.87256 15.9132 1.95663 16.0426 2.09396C16.1731 2.23007 16.253 2.41837 16.253 2.62543V3.49014H14.4395ZM12.951 3.49014C12.7447 3.49014 12.5786 3.66623 12.5786 3.88336C12.5786 4.10034 12.7447 4.27643 12.951 4.27643C13.156 4.27643 13.3223 4.10034 13.3223 3.88336C13.3223 3.66623 13.156 3.49014 12.951 3.49014ZM2.79521 9.83612C2.58893 9.83612 2.42163 10.0111 2.42163 10.2281C2.42163 10.444 2.58893 10.619 2.79521 10.619C3.00135 10.619 3.16864 10.444 3.16864 10.2281C3.16864 10.011 3.00135 9.83612 2.79521 9.83612ZM13.4989 5.49881H12.4029C12.1924 5.49881 12.001 5.5896 11.8632 5.73471C11.7253 5.87982 11.6391 6.08124 11.6391 6.3028V6.97266H11.0027C10.7923 6.97266 10.6018 7.06345 10.463 7.20856C10.3253 7.35367 10.239 7.55508 10.239 7.77542V8.93036C10.239 9.1507 10.3253 9.35226 10.463 9.49738C10.6018 9.64233 10.7923 9.73312 11.0027 9.73312H11.6391V10.4031C11.6391 10.6245 11.7253 10.8261 11.8632 10.9712C12.001 11.1162 12.1924 11.207 12.4029 11.207H13.4989C13.7093 11.207 13.8998 11.1163 14.0376 10.9712C14.1765 10.8261 14.2616 10.6245 14.2616 10.4031V9.73312H14.8981C15.1085 9.73312 15.3 9.64233 15.4377 9.49738C15.5756 9.35226 15.6618 9.1507 15.6618 8.93036V7.77542C15.6618 7.55508 15.5756 7.35367 15.4377 7.20856C15.3 7.06345 15.1085 6.97266 14.8981 6.97266H14.2616V6.3028C14.2616 6.08124 14.1765 5.87982 14.0376 5.73471C13.8998 5.5896 13.7093 5.49881 13.4989 5.49881ZM12.4029 6.2851H13.4989C13.5074 6.2851 13.5148 6.29395 13.5148 6.3028V7.36572C13.5148 7.58286 13.682 7.75894 13.8882 7.75894H14.8981C14.9066 7.75894 14.915 7.76779 14.915 7.77542V8.93036C14.915 8.93814 14.9066 8.94699 14.8981 8.94699H13.8882C13.682 8.94699 13.5148 9.12308 13.5148 9.34006V10.4031C13.5148 10.412 13.5074 10.4208 13.4989 10.4208H12.4029C12.3945 10.4208 12.3861 10.412 12.3861 10.4031V9.34006C12.3861 9.12308 12.2188 8.94699 12.0125 8.94699H11.0027C10.9943 8.94699 10.9859 8.93814 10.9859 8.93036V7.77542C10.9859 7.76779 10.9943 7.75894 11.0027 7.75894H12.0125C12.2188 7.75894 12.3861 7.58286 12.3861 7.36572V6.3028C12.3861 6.29395 12.3945 6.2851 12.4029 6.2851ZM2.51208 11.4195C1.83148 12.2379 1.2151 13.0206 0.765854 13.7825C0.2924 14.5842 0 15.3693 0 16.1543C0 16.9661 0.312395 17.7013 0.818466 18.2338C1.32439 18.7665 2.02299 19.0953 2.79521 19.0953C3.56613 19.0953 4.26471 18.7665 4.77078 18.2338C5.27671 17.7013 5.58911 16.9659 5.58911 16.1543C5.58911 15.3693 5.29672 14.5842 4.82341 13.7825C4.37315 13.0196 3.75662 12.2368 3.075 11.4162C2.92554 11.2369 2.65835 11.239 2.51208 11.4195ZM1.3992 14.1966C1.76422 13.5788 2.2513 12.9376 2.79521 12.2722C3.33897 12.9376 3.82605 13.5788 4.19107 14.1966C4.59393 14.8799 4.84326 15.531 4.84326 16.1543C4.84326 16.749 4.61393 17.2882 4.24268 17.6779C3.87229 18.0688 3.35999 18.3102 2.79506 18.3102C2.22912 18.3102 1.71681 18.0688 1.34657 17.6779C0.976188 17.2882 0.746857 16.749 0.746857 16.1543C0.747002 15.531 0.996344 14.8799 1.3992 14.1966ZM11.3445 13.4193H14.5562V14.469C14.5562 14.5764 14.5152 14.6739 14.4469 14.7447C14.3795 14.8157 14.2868 14.8599 14.1848 14.8599H11.7159C11.6138 14.8599 11.5213 14.8157 11.4539 14.7447C11.3865 14.6739 11.3445 14.5764 11.3445 14.469V13.4193Z" stroke="white" stroke-width="2" mask="url(#path-1-inside-1)"/>
</svg>
