<svg width="19" height="23" viewBox="0 0 19 23" fill="none" xmlns="http://www.w3.org/2000/svg">
<mask id="path-1-inside-1" fill="white">
<path d="M17.3657 1.21407H11.5834C11.1332 1.21407 10.7239 1.40712 10.4289 1.71904C10.1325 2.03078 9.948 2.46037 9.948 2.9343V13.2779C9.948 13.7506 10.1325 14.1812 10.4277 14.4931C10.7239 14.8051 11.1332 14.9981 11.5834 14.9981H11.8444V16.1712C11.8444 16.5338 11.9856 16.8631 12.2112 17.1007C12.4382 17.3382 12.7498 17.4868 13.0942 17.4868H14.0571V18.4398C14.0571 19.2739 13.7326 20.0324 13.2094 20.5831C12.6863 21.1339 11.9656 21.4755 11.173 21.4755C10.3806 21.4755 9.65992 21.1339 9.13676 20.5831C8.61473 20.0324 8.29022 19.2739 8.29022 18.4398V2.93806C8.29022 2.12987 7.97622 1.39484 7.46958 0.862589C6.96392 0.330335 6.26675 0 5.4978 0C4.72999 0 4.03169 0.330335 3.52602 0.862589C3.02052 1.39484 2.70653 2.12987 2.70653 2.93806V9.67897C2.70653 9.92165 2.89351 10.1171 3.12406 10.1171C3.35445 10.1171 3.54142 9.92165 3.54142 9.67897V2.93806C3.54142 2.37238 3.76128 1.85752 4.11626 1.48386C4.47141 1.11004 4.96055 0.87862 5.4978 0.87862C6.03636 0.87862 6.52534 1.11004 6.88049 1.48386C7.23434 1.85752 7.45532 2.37238 7.45532 2.93806V18.4398C7.45532 19.5164 7.87399 20.4953 8.54766 21.2045C9.22134 21.9137 10.1502 22.353 11.173 22.353C12.196 22.353 13.126 21.9137 13.7997 21.2045C14.4733 20.4953 14.8909 19.5164 14.8909 18.4398V17.4868H15.8537C16.1982 17.4868 16.5109 17.3382 16.7368 17.1007C16.9636 16.8631 17.1036 16.534 17.1036 16.1712V14.9981H17.3657C17.8148 14.9981 18.2239 14.8051 18.5203 14.4931C18.8166 14.1814 19 13.7506 19 13.2779V2.9343C19 2.46037 18.8166 2.03078 18.5203 1.71904C18.2239 1.40712 17.8148 1.21407 17.3657 1.21407ZM16.1382 3.90075C15.9077 3.90075 15.722 4.09755 15.722 4.34023C15.722 4.58274 15.9077 4.77954 16.1382 4.77954H18.1651V13.2779C18.1651 13.5081 18.0759 13.7184 17.93 13.8719C17.7854 14.0241 17.5844 14.1193 17.3657 14.1193H11.5834C11.3636 14.1193 11.1638 14.0241 11.0178 13.8719C10.8733 13.7184 10.7827 13.5081 10.7827 13.2779V4.77954C11.4564 4.77954 12.1419 4.77954 12.8097 4.77954C13.0401 4.77954 13.226 4.58274 13.226 4.34023C13.226 4.09755 13.0401 3.90092 12.8097 3.90092H10.7827V2.9343C10.7827 2.70288 10.8733 2.49244 11.0178 2.34031C11.1638 2.18683 11.3636 2.09286 11.5834 2.09286H17.3657C17.5844 2.09286 17.7854 2.18683 17.93 2.34031C18.0759 2.49244 18.1651 2.70288 18.1651 2.9343V3.90075H16.1382ZM14.4746 3.90075C14.2441 3.90075 14.0584 4.09755 14.0584 4.34023C14.0584 4.58274 14.2441 4.77954 14.4746 4.77954C14.7037 4.77954 14.8896 4.58274 14.8896 4.34023C14.8896 4.09755 14.7037 3.90075 14.4746 3.90075ZM3.12406 10.9933C2.89351 10.9933 2.70653 11.1889 2.70653 11.4314C2.70653 11.6728 2.89351 11.8684 3.12406 11.8684C3.35445 11.8684 3.54142 11.6728 3.54142 11.4314C3.54142 11.1888 3.35445 10.9933 3.12406 10.9933ZM15.0871 6.14573H13.8621C13.6268 6.14573 13.4129 6.2472 13.2589 6.40939C13.1048 6.57157 13.0084 6.79668 13.0084 7.04431V7.79298H12.2971C12.062 7.79298 11.8491 7.89445 11.6939 8.05663C11.54 8.21881 11.4436 8.44392 11.4436 8.69018V9.981C11.4436 10.2273 11.54 10.4525 11.6939 10.6147C11.8491 10.7767 12.062 10.8782 12.2971 10.8782H13.0084V11.627C13.0084 11.8745 13.1048 12.0998 13.2589 12.262C13.4129 12.424 13.6268 12.5254 13.8621 12.5254H15.0871C15.3222 12.5254 15.5351 12.4241 15.6891 12.262C15.8444 12.0998 15.9395 11.8745 15.9395 11.627V10.8782H16.6509C16.886 10.8782 17.1 10.7767 17.2539 10.6147C17.408 10.4525 17.5044 10.2273 17.5044 9.981V8.69018C17.5044 8.44392 17.408 8.21881 17.2539 8.05663C17.1 7.89445 16.886 7.79298 16.6509 7.79298H15.9395V7.04431C15.9395 6.79668 15.8444 6.57157 15.6891 6.40939C15.5351 6.2472 15.3222 6.14573 15.0871 6.14573ZM13.8621 7.02452H15.0871C15.0965 7.02452 15.1047 7.03442 15.1047 7.04431V8.23229C15.1047 8.47496 15.2917 8.67176 15.5221 8.67176H16.6509C16.6603 8.67176 16.6697 8.68165 16.6697 8.69018V9.981C16.6697 9.9897 16.6603 9.99959 16.6509 9.99959H15.5221C15.2917 9.99959 15.1047 10.1964 15.1047 10.4389V11.627C15.1047 11.6369 15.0965 11.6468 15.0871 11.6468H13.8621C13.8527 11.6468 13.8433 11.6369 13.8433 11.627V10.4389C13.8433 10.1964 13.6563 9.99959 13.4257 9.99959H12.2971C12.2877 9.99959 12.2783 9.9897 12.2783 9.981V8.69018C12.2783 8.68165 12.2877 8.67176 12.2971 8.67176H13.4257C13.6563 8.67176 13.8433 8.47496 13.8433 8.23229V7.04431C13.8433 7.03442 13.8527 7.02452 13.8621 7.02452ZM2.80763 12.763C2.04695 13.6776 1.35805 14.5525 0.855955 15.404C0.3268 16.3 0 17.1774 0 18.0549C0 18.9621 0.349147 19.7838 0.914757 20.379C1.4802 20.9743 2.26099 21.3418 3.12406 21.3418C3.98568 21.3418 4.76645 20.9743 5.33206 20.379C5.8975 19.7838 6.24666 18.962 6.24666 18.0549C6.24666 17.1774 5.91987 16.3 5.39087 15.404C4.88764 14.5513 4.19858 13.6764 3.43676 12.7593C3.26972 12.5589 2.9711 12.5613 2.80763 12.763ZM1.56381 15.8668C1.97178 15.1763 2.51617 14.4597 3.12406 13.716C3.7318 14.4597 4.27618 15.1763 4.68414 15.8668C5.13439 16.6305 5.41306 17.3582 5.41306 18.0549C5.41306 18.7194 5.15675 19.3221 4.74182 19.7577C4.32786 20.1946 3.75528 20.4644 3.12389 20.4644C2.49137 20.4644 1.91879 20.1946 1.50499 19.7577C1.09103 19.3221 0.834723 18.7194 0.834723 18.0549C0.834885 17.3582 1.11356 16.6305 1.56381 15.8668ZM12.6792 14.9981H16.2687V16.1712C16.2687 16.2913 16.2228 16.4003 16.1465 16.4794C16.0712 16.5587 15.9676 16.6082 15.8536 16.6082H13.0942C12.9802 16.6082 12.8768 16.5587 12.8015 16.4794C12.7261 16.4003 12.6792 16.2913 12.6792 16.1712V14.9981Z"/>
</mask>
<path d="M17.3657 1.21407H11.5834C11.1332 1.21407 10.7239 1.40712 10.4289 1.71904C10.1325 2.03078 9.948 2.46037 9.948 2.9343V13.2779C9.948 13.7506 10.1325 14.1812 10.4277 14.4931C10.7239 14.8051 11.1332 14.9981 11.5834 14.9981H11.8444V16.1712C11.8444 16.5338 11.9856 16.8631 12.2112 17.1007C12.4382 17.3382 12.7498 17.4868 13.0942 17.4868H14.0571V18.4398C14.0571 19.2739 13.7326 20.0324 13.2094 20.5831C12.6863 21.1339 11.9656 21.4755 11.173 21.4755C10.3806 21.4755 9.65992 21.1339 9.13676 20.5831C8.61473 20.0324 8.29022 19.2739 8.29022 18.4398V2.93806C8.29022 2.12987 7.97622 1.39484 7.46958 0.862589C6.96392 0.330335 6.26675 0 5.4978 0C4.72999 0 4.03169 0.330335 3.52602 0.862589C3.02052 1.39484 2.70653 2.12987 2.70653 2.93806V9.67897C2.70653 9.92165 2.89351 10.1171 3.12406 10.1171C3.35445 10.1171 3.54142 9.92165 3.54142 9.67897V2.93806C3.54142 2.37238 3.76128 1.85752 4.11626 1.48386C4.47141 1.11004 4.96055 0.87862 5.4978 0.87862C6.03636 0.87862 6.52534 1.11004 6.88049 1.48386C7.23434 1.85752 7.45532 2.37238 7.45532 2.93806V18.4398C7.45532 19.5164 7.87399 20.4953 8.54766 21.2045C9.22134 21.9137 10.1502 22.353 11.173 22.353C12.196 22.353 13.126 21.9137 13.7997 21.2045C14.4733 20.4953 14.8909 19.5164 14.8909 18.4398V17.4868H15.8537C16.1982 17.4868 16.5109 17.3382 16.7368 17.1007C16.9636 16.8631 17.1036 16.534 17.1036 16.1712V14.9981H17.3657C17.8148 14.9981 18.2239 14.8051 18.5203 14.4931C18.8166 14.1814 19 13.7506 19 13.2779V2.9343C19 2.46037 18.8166 2.03078 18.5203 1.71904C18.2239 1.40712 17.8148 1.21407 17.3657 1.21407ZM16.1382 3.90075C15.9077 3.90075 15.722 4.09755 15.722 4.34023C15.722 4.58274 15.9077 4.77954 16.1382 4.77954H18.1651V13.2779C18.1651 13.5081 18.0759 13.7184 17.93 13.8719C17.7854 14.0241 17.5844 14.1193 17.3657 14.1193H11.5834C11.3636 14.1193 11.1638 14.0241 11.0178 13.8719C10.8733 13.7184 10.7827 13.5081 10.7827 13.2779V4.77954C11.4564 4.77954 12.1419 4.77954 12.8097 4.77954C13.0401 4.77954 13.226 4.58274 13.226 4.34023C13.226 4.09755 13.0401 3.90092 12.8097 3.90092H10.7827V2.9343C10.7827 2.70288 10.8733 2.49244 11.0178 2.34031C11.1638 2.18683 11.3636 2.09286 11.5834 2.09286H17.3657C17.5844 2.09286 17.7854 2.18683 17.93 2.34031C18.0759 2.49244 18.1651 2.70288 18.1651 2.9343V3.90075H16.1382ZM14.4746 3.90075C14.2441 3.90075 14.0584 4.09755 14.0584 4.34023C14.0584 4.58274 14.2441 4.77954 14.4746 4.77954C14.7037 4.77954 14.8896 4.58274 14.8896 4.34023C14.8896 4.09755 14.7037 3.90075 14.4746 3.90075ZM3.12406 10.9933C2.89351 10.9933 2.70653 11.1889 2.70653 11.4314C2.70653 11.6728 2.89351 11.8684 3.12406 11.8684C3.35445 11.8684 3.54142 11.6728 3.54142 11.4314C3.54142 11.1888 3.35445 10.9933 3.12406 10.9933ZM15.0871 6.14573H13.8621C13.6268 6.14573 13.4129 6.2472 13.2589 6.40939C13.1048 6.57157 13.0084 6.79668 13.0084 7.04431V7.79298H12.2971C12.062 7.79298 11.8491 7.89445 11.6939 8.05663C11.54 8.21881 11.4436 8.44392 11.4436 8.69018V9.981C11.4436 10.2273 11.54 10.4525 11.6939 10.6147C11.8491 10.7767 12.062 10.8782 12.2971 10.8782H13.0084V11.627C13.0084 11.8745 13.1048 12.0998 13.2589 12.262C13.4129 12.424 13.6268 12.5254 13.8621 12.5254H15.0871C15.3222 12.5254 15.5351 12.4241 15.6891 12.262C15.8444 12.0998 15.9395 11.8745 15.9395 11.627V10.8782H16.6509C16.886 10.8782 17.1 10.7767 17.2539 10.6147C17.408 10.4525 17.5044 10.2273 17.5044 9.981V8.69018C17.5044 8.44392 17.408 8.21881 17.2539 8.05663C17.1 7.89445 16.886 7.79298 16.6509 7.79298H15.9395V7.04431C15.9395 6.79668 15.8444 6.57157 15.6891 6.40939C15.5351 6.2472 15.3222 6.14573 15.0871 6.14573ZM13.8621 7.02452H15.0871C15.0965 7.02452 15.1047 7.03442 15.1047 7.04431V8.23229C15.1047 8.47496 15.2917 8.67176 15.5221 8.67176H16.6509C16.6603 8.67176 16.6697 8.68165 16.6697 8.69018V9.981C16.6697 9.9897 16.6603 9.99959 16.6509 9.99959H15.5221C15.2917 9.99959 15.1047 10.1964 15.1047 10.4389V11.627C15.1047 11.6369 15.0965 11.6468 15.0871 11.6468H13.8621C13.8527 11.6468 13.8433 11.6369 13.8433 11.627V10.4389C13.8433 10.1964 13.6563 9.99959 13.4257 9.99959H12.2971C12.2877 9.99959 12.2783 9.9897 12.2783 9.981V8.69018C12.2783 8.68165 12.2877 8.67176 12.2971 8.67176H13.4257C13.6563 8.67176 13.8433 8.47496 13.8433 8.23229V7.04431C13.8433 7.03442 13.8527 7.02452 13.8621 7.02452ZM2.80763 12.763C2.04695 13.6776 1.35805 14.5525 0.855955 15.404C0.3268 16.3 0 17.1774 0 18.0549C0 18.9621 0.349147 19.7838 0.914757 20.379C1.4802 20.9743 2.26099 21.3418 3.12406 21.3418C3.98568 21.3418 4.76645 20.9743 5.33206 20.379C5.8975 19.7838 6.24666 18.962 6.24666 18.0549C6.24666 17.1774 5.91987 16.3 5.39087 15.404C4.88764 14.5513 4.19858 13.6764 3.43676 12.7593C3.26972 12.5589 2.9711 12.5613 2.80763 12.763ZM1.56381 15.8668C1.97178 15.1763 2.51617 14.4597 3.12406 13.716C3.7318 14.4597 4.27618 15.1763 4.68414 15.8668C5.13439 16.6305 5.41306 17.3582 5.41306 18.0549C5.41306 18.7194 5.15675 19.3221 4.74182 19.7577C4.32786 20.1946 3.75528 20.4644 3.12389 20.4644C2.49137 20.4644 1.91879 20.1946 1.50499 19.7577C1.09103 19.3221 0.834723 18.7194 0.834723 18.0549C0.834885 17.3582 1.11356 16.6305 1.56381 15.8668ZM12.6792 14.9981H16.2687V16.1712C16.2687 16.2913 16.2228 16.4003 16.1465 16.4794C16.0712 16.5587 15.9676 16.6082 15.8536 16.6082H13.0942C12.9802 16.6082 12.8768 16.5587 12.8015 16.4794C12.7261 16.4003 12.6792 16.2913 12.6792 16.1712V14.9981Z" stroke="#808080" stroke-width="2" mask="url(#path-1-inside-1)"/>
</svg>
