<svg width="15" height="17" viewBox="0 0 15 17" fill="none" xmlns="http://www.w3.org/2000/svg">
<mask id="path-1-inside-1" fill="white">
<path d="M7.49992 1.98846C5.47515 1.98846 3.5755 2.89035 2.15084 4.52798C1.99646 4.70544 1.99646 4.9695 2.15084 5.14695L4.72017 8.10032C4.80973 8.20327 4.93949 8.26237 5.07592 8.26237H9.92395C10.0604 8.26237 10.1901 8.20327 10.2797 8.10032L12.849 5.14695C13.0034 4.9695 13.0034 4.70541 12.849 4.52795C11.4243 2.89035 9.52462 1.98849 7.49992 1.98846ZM7.22285 7.3193L7.49989 6.7192L7.77693 7.3193H7.22285ZM9.70915 7.3193H8.81568L7.92801 5.39661C7.85093 5.22966 7.68382 5.12274 7.49989 5.12274C7.31599 5.12274 7.14885 5.22966 7.07177 5.39661L6.18412 7.3193H5.29066L3.13911 4.84617C3.40792 4.57017 3.69313 4.32227 3.99196 4.10335L4.39792 4.59032C4.49119 4.7022 4.62526 4.75991 4.76034 4.75991C4.86681 4.75991 4.97388 4.72405 5.06203 4.65055C5.26205 4.48379 5.28902 4.18647 5.12229 3.98644L4.79998 3.59982C5.49829 3.23538 6.25026 3.01455 7.02835 2.95095V3.53169C7.02835 3.79211 7.23947 4.00323 7.49989 4.00323C7.7603 4.00323 7.97142 3.79211 7.97142 3.53169V2.95095C8.74951 3.01455 9.50148 3.23538 10.1998 3.59982L9.87748 3.98644C9.71072 4.18647 9.73772 4.48382 9.93771 4.65055C10.0259 4.72405 10.133 4.75991 10.2394 4.75991C10.3745 4.75991 10.5086 4.70217 10.6019 4.59032L11.0078 4.10335C11.3066 4.32227 11.5919 4.57017 11.8606 4.84617L9.70915 7.3193Z"/>
<path d="M14.1131 1.13935C13.4604 0.415266 12.5269 0 11.5521 0H7.5H3.44794C2.47312 0 1.53967 0.415263 0.886943 1.13932C0.234215 1.86337 -0.0823411 2.83476 0.0183785 3.80439L0.971568 12.9771C1.15471 14.7396 2.6291 16.0688 4.40112 16.0688H10.5989C12.3709 16.0688 13.8453 14.7397 14.0285 12.9771L14.9816 3.80443C15.0824 2.8348 14.7658 1.86341 14.1131 1.13935ZM14.0436 3.70691L13.0904 12.8797C12.9574 14.1601 11.8862 15.1257 10.5989 15.1257H7.97154V12.2975C7.97154 12.0371 7.76042 11.8259 7.50001 11.8259C7.2396 11.8259 7.02848 12.0371 7.02848 12.2975V15.1257H4.40112C3.11378 15.1257 2.04264 14.1601 1.90957 12.8797L0.956416 3.70691C0.883202 3.00247 1.11318 2.29681 1.58739 1.77077C2.0616 1.24475 2.73972 0.943067 3.44794 0.943067H11.5521C12.2603 0.943067 12.9384 1.24475 13.4126 1.7708C13.8868 2.29681 14.1168 3.0025 14.0436 3.70691Z"/>
</mask>
<path d="M7.49992 1.98846L7.49993 0.988462H7.49992V1.98846ZM2.15084 4.52798L2.9053 5.18434L2.90531 5.18433L2.15084 4.52798ZM2.15084 5.14695L2.9053 4.4906L2.9053 4.4906L2.15084 5.14695ZM4.72017 8.10032L5.47464 7.44399L5.47462 7.44397L4.72017 8.10032ZM10.2797 8.10032L9.52524 7.44397L9.52523 7.44399L10.2797 8.10032ZM12.849 5.14695L12.0946 4.4906L12.0946 4.4906L12.849 5.14695ZM12.849 4.52795L13.6035 3.8716L13.6035 3.87159L12.849 4.52795ZM7.22285 7.3193L6.31493 6.90016L5.65977 8.3193H7.22285V7.3193ZM7.49989 6.7192L8.40781 6.30006L7.49989 4.3334L6.59197 6.30005L7.49989 6.7192ZM7.77693 7.3193V8.3193H9.34L8.68485 6.90016L7.77693 7.3193ZM9.70915 7.3193V8.3193H10.1646L10.4636 7.97564L9.70915 7.3193ZM8.81568 7.3193L7.90778 7.73847L8.17594 8.3193H8.81568V7.3193ZM7.92801 5.39661L7.0201 5.81577L7.0201 5.81578L7.92801 5.39661ZM7.07177 5.39661L6.16386 4.97744L6.16385 4.97746L7.07177 5.39661ZM6.18412 7.3193V8.3193H6.82388L7.09203 7.73846L6.18412 7.3193ZM5.29066 7.3193L4.5362 7.97566L4.83517 8.3193H5.29066V7.3193ZM3.13911 4.84617L2.42273 4.14847L1.78042 4.80797L2.38466 5.50252L3.13911 4.84617ZM3.99196 4.10335L4.76006 3.46303L4.15865 2.7416L3.40099 3.29666L3.99196 4.10335ZM4.39792 4.59032L3.62982 5.23065L3.62982 5.23065L4.39792 4.59032ZM5.06203 4.65055L4.42167 3.88248L4.42163 3.88251L5.06203 4.65055ZM5.12229 3.98644L5.89042 3.34615L5.89039 3.34612L5.12229 3.98644ZM4.79998 3.59982L4.33732 2.71328L3.23751 3.28725L4.03188 4.24014L4.79998 3.59982ZM7.02835 2.95095H8.02835V1.86589L6.94689 1.95428L7.02835 2.95095ZM7.97142 2.95095L8.05288 1.95428L6.97142 1.86589V2.95095H7.97142ZM10.1998 3.59982L10.9679 4.24014L11.7623 3.28725L10.6625 2.71328L10.1998 3.59982ZM9.87748 3.98644L10.6456 4.62681L10.6456 4.62677L9.87748 3.98644ZM9.93771 4.65055L9.29736 5.41864L9.29758 5.41882L9.93771 4.65055ZM10.6019 4.59032L11.3699 5.23076L11.37 5.23065L10.6019 4.59032ZM11.0078 4.10335L11.5988 3.29669L10.8411 2.74157L10.2397 3.46303L11.0078 4.10335ZM11.8606 4.84617L12.6151 5.50251L13.2193 4.80801L12.5771 4.14851L11.8606 4.84617ZM14.1131 1.13935L14.8559 0.469813L14.8559 0.469775L14.1131 1.13935ZM0.886943 1.13932L0.144199 0.469743L0.144199 0.469743L0.886943 1.13932ZM0.0183785 3.80439L-0.97627 3.90771L-0.976266 3.90775L0.0183785 3.80439ZM0.971568 12.9771L1.96621 12.8738L1.96621 12.8738L0.971568 12.9771ZM14.0285 12.9771L15.0231 13.0805L15.0231 13.0805L14.0285 12.9771ZM14.9816 3.80443L15.9763 3.90778L15.9763 3.90778L14.9816 3.80443ZM14.0436 3.70691L13.0489 3.60353L13.0489 3.60356L14.0436 3.70691ZM13.0904 12.8797L12.0958 12.7763L12.0958 12.7763L13.0904 12.8797ZM7.97154 15.1257H6.97154V16.1257H7.97154V15.1257ZM7.02848 15.1257V16.1257H8.02848V15.1257H7.02848ZM1.90957 12.8797L0.914929 12.983L0.91493 12.983L1.90957 12.8797ZM0.956416 3.70691L1.95106 3.60356L1.95106 3.60354L0.956416 3.70691ZM1.58739 1.77077L0.844655 1.10118L0.844635 1.1012L1.58739 1.77077ZM13.4126 1.7708L12.6699 2.44036L12.6699 2.44038L13.4126 1.7708ZM7.49992 0.988462C5.16299 0.988462 2.99547 2.0335 1.39638 3.87164L2.90531 5.18433C4.15553 3.7472 5.78731 2.98846 7.49992 2.98846V0.988462ZM1.39639 3.87163C0.914614 4.42541 0.914614 5.24952 1.39639 5.80331L2.9053 4.4906C3.07831 4.68947 3.07831 4.98546 2.9053 5.18434L1.39639 3.87163ZM1.39639 5.8033L3.96571 8.75667L5.47462 7.44397L2.9053 4.4906L1.39639 5.8033ZM3.9657 8.75666C4.2452 9.07795 4.65015 9.26237 5.07592 9.26237V7.26237C5.22883 7.26237 5.37426 7.3286 5.47464 7.44399L3.9657 8.75666ZM5.07592 9.26237H9.92395V7.26237H5.07592V9.26237ZM9.92395 9.26237C10.3498 9.26237 10.7547 9.07792 11.0342 8.75666L9.52523 7.44399C9.62559 7.32863 9.77103 7.26237 9.92395 7.26237V9.26237ZM11.0342 8.75667L13.6035 5.8033L12.0946 4.4906L9.52524 7.44397L11.0342 8.75667ZM13.6035 5.80331C14.0853 5.24952 14.0853 4.42538 13.6035 3.8716L12.0946 5.18431C11.9216 4.98543 11.9216 4.68947 12.0946 4.4906L13.6035 5.80331ZM13.6035 3.87159C12.0043 2.03349 9.83677 0.988498 7.49993 0.988462L7.4999 2.98846C9.21247 2.98849 10.8443 3.74721 12.0946 5.18431L13.6035 3.87159ZM8.13076 7.73845L8.40781 7.13835L6.59197 6.30005L6.31493 6.90016L8.13076 7.73845ZM6.59197 7.13835L6.86901 7.73845L8.68485 6.90016L8.40781 6.30006L6.59197 7.13835ZM7.77693 6.3193H7.22285V8.3193H7.77693V6.3193ZM9.70915 6.3193H8.81568V8.3193H9.70915V6.3193ZM9.72359 6.90014L8.83592 4.97744L7.0201 5.81578L7.90778 7.73847L9.72359 6.90014ZM8.83592 4.97745C8.59534 4.45636 8.07378 4.12274 7.49989 4.12274V6.12274C7.29385 6.12274 7.10651 6.00295 7.0201 5.81577L8.83592 4.97745ZM7.49989 4.12274C6.92606 4.12274 6.40445 4.45633 6.16386 4.97744L7.97967 5.81578C7.89324 6.00298 7.70592 6.12274 7.49989 6.12274V4.12274ZM6.16385 4.97746L5.27621 6.90015L7.09203 7.73846L7.97968 5.81576L6.16385 4.97746ZM6.18412 6.3193H5.29066V8.3193H6.18412V6.3193ZM6.04511 6.66295L3.89357 4.18982L2.38466 5.50252L4.5362 7.97566L6.04511 6.66295ZM3.8555 5.54387C4.0864 5.30679 4.32978 5.0955 4.58293 4.91004L3.40099 3.29666C3.05649 3.54904 2.72944 3.83354 2.42273 4.14847L3.8555 5.54387ZM3.22386 4.74368L3.62982 5.23065L5.16602 3.95L4.76006 3.46303L3.22386 4.74368ZM3.62982 5.23065C3.92111 5.58007 4.34132 5.75991 4.76034 5.75991V3.75991C4.90921 3.75991 5.06127 3.82434 5.16602 3.94999L3.62982 5.23065ZM4.76034 5.75991C5.09208 5.75991 5.42792 5.64748 5.70243 5.41859L4.42163 3.88251C4.51985 3.80061 4.64155 3.75991 4.76034 3.75991V5.75991ZM5.70239 5.41862C6.32657 4.89823 6.41077 3.97039 5.89042 3.34615L4.35416 4.62673C4.16728 4.40254 4.19754 4.06934 4.42167 3.88248L5.70239 5.41862ZM5.89039 3.34612L5.56809 2.95949L4.03188 4.24014L4.35418 4.62677L5.89039 3.34612ZM5.26264 4.48635C5.84574 4.18204 6.46844 4.00005 7.10981 3.94763L6.94689 1.95428C6.03208 2.02905 5.15084 2.28872 4.33732 2.71328L5.26264 4.48635ZM6.02835 2.95095V3.53169H8.02835V2.95095H6.02835ZM6.02835 3.53169C6.02835 4.34439 6.68718 5.00323 7.49989 5.00323V3.00323C7.79177 3.00323 8.02835 3.23983 8.02835 3.53169H6.02835ZM7.49989 5.00323C8.31259 5.00323 8.97142 4.34438 8.97142 3.53169H6.97142C6.97142 3.23983 7.20801 3.00323 7.49989 3.00323V5.00323ZM8.97142 3.53169V2.95095H6.97142V3.53169H8.97142ZM7.88996 3.94763C8.53133 4.00005 9.15403 4.18204 9.73713 4.48635L10.6625 2.71328C9.84893 2.28872 8.9677 2.02905 8.05288 1.95428L7.88996 3.94763ZM9.43169 2.95949L9.10938 3.34612L10.6456 4.62677L10.9679 4.24014L9.43169 2.95949ZM9.10941 3.34608C8.58892 3.97037 8.67323 4.8983 9.29737 5.41863L10.5781 3.88247C10.8022 4.06934 10.8325 4.40256 10.6456 4.62681L9.10941 3.34608ZM9.29758 5.41882C9.57193 5.64741 9.90756 5.75991 10.2394 5.75991V3.75991C10.3584 3.75991 10.4799 3.80069 10.5778 3.88229L9.29758 5.41882ZM10.2394 5.75991C10.6586 5.75991 11.0787 5.57994 11.3699 5.23076L9.83385 3.94988C9.93849 3.8244 10.0904 3.75991 10.2394 3.75991V5.75991ZM11.37 5.23065L11.7759 4.74368L10.2397 3.46303L9.83375 3.95L11.37 5.23065ZM10.4168 4.91001C10.67 5.09551 10.9134 5.30681 11.1442 5.54383L12.5771 4.14851C12.2703 3.83353 11.9432 3.54903 11.5988 3.29669L10.4168 4.91001ZM11.1062 4.18983L8.95468 6.66296L10.4636 7.97564L12.6151 5.50251L11.1062 4.18983ZM14.8559 0.469775C14.0135 -0.46465 12.8101 -1 11.5521 -1V1C12.2437 1 12.9072 1.29518 13.3704 1.80893L14.8559 0.469775ZM3.44794 -1C2.18992 -1 0.986549 -0.464655 0.144199 0.469743L1.62969 1.80889C2.09279 1.29518 2.75632 1 3.44794 1V-1ZM0.144199 0.469743C-0.69817 1.40416 -1.10625 2.65644 -0.97627 3.90771L1.01303 3.70107C0.941563 3.01309 1.1666 2.32259 1.62969 1.80889L0.144199 0.469743ZM-0.976266 3.90775L-0.0230766 13.0805L1.96621 12.8738L1.01302 3.70103L-0.976266 3.90775ZM-0.023077 13.0805C0.213013 15.3525 2.11684 17.0688 4.40112 17.0688V15.0688C3.14137 15.0688 2.09641 14.1267 1.96621 12.8738L-0.023077 13.0805ZM4.40112 17.0688H10.5989V15.0688H4.40112V17.0688ZM10.5989 17.0688C12.8832 17.0688 14.787 15.3525 15.0231 13.0805L13.0338 12.8738C12.9036 14.1268 11.8586 15.0688 10.5989 15.0688V17.0688ZM15.0231 13.0805L15.9763 3.90778L13.987 3.70107L13.0338 12.8738L15.0231 13.0805ZM15.9763 3.90778C16.1063 2.65646 15.6981 1.4042 14.8559 0.469813L13.3703 1.80889C13.8334 2.32261 14.0584 3.01313 13.987 3.70108L15.9763 3.90778ZM13.0489 3.60356L12.0958 12.7763L14.0851 12.983L15.0382 3.81027L13.0489 3.60356ZM12.0958 12.7763C12.0157 13.5472 11.374 14.1257 10.5989 14.1257V16.1257C12.3985 16.1257 13.8991 14.773 14.0851 12.983L12.0958 12.7763ZM10.5989 14.1257H7.97154V16.1257H10.5989V14.1257ZM8.97154 15.1257V12.2975H6.97154V15.1257H8.97154ZM8.97154 12.2975C8.97154 11.4848 8.3127 10.8259 7.50001 10.8259V12.8259C7.20815 12.8259 6.97154 12.5893 6.97154 12.2975H8.97154ZM7.50001 10.8259C6.68732 10.8259 6.02848 11.4848 6.02848 12.2975H8.02848C8.02848 12.5893 7.79188 12.8259 7.50001 12.8259V10.8259ZM6.02848 12.2975V15.1257H8.02848V12.2975H6.02848ZM7.02848 14.1257H4.40112V16.1257H7.02848V14.1257ZM4.40112 14.1257C3.62604 14.1257 2.98433 13.5472 2.90422 12.7763L0.91493 12.983C1.10095 14.773 2.60152 16.1257 4.40112 16.1257V14.1257ZM2.90422 12.7763L1.95106 3.60356L-0.0382288 3.81027L0.914929 12.983L2.90422 12.7763ZM1.95106 3.60354C1.90712 3.18081 2.04555 2.75603 2.33015 2.44033L0.844635 1.1012C0.180817 1.83759 -0.140719 2.82414 -0.0382268 3.81029L1.95106 3.60354ZM2.33013 2.44035C2.61472 2.12467 3.02293 1.94307 3.44794 1.94307V-0.0569327C2.45652 -0.0569327 1.50848 0.36484 0.844655 1.10118L2.33013 2.44035ZM3.44794 1.94307H11.5521V-0.0569327H3.44794V1.94307ZM11.5521 1.94307C11.9771 1.94307 12.3853 2.12468 12.6699 2.44036L14.1554 1.10123C13.4916 0.36483 12.5435 -0.0569327 11.5521 -0.0569327V1.94307ZM12.6699 2.44038C12.9544 2.75601 13.0929 3.1808 13.0489 3.60353L15.0382 3.81029C15.1407 2.82421 14.8192 1.8376 14.1554 1.10121L12.6699 2.44038ZM11.5521 -1H7.5V1H11.5521V-1ZM7.5 -1H3.44794V1H7.5V-1Z" fill="#808080" mask="url(#path-1-inside-1)"/>
</svg>
